<?xml version="1.0" encoding="UTF-8" standalone="no"?>
<!-- Created with Inkscape (http://www.inkscape.org/) -->

<svg
   width="2in"
   height="2in"
   viewBox="0 0 50.800001 50.800001"
   version="1.1"
   id="svg8"
   inkscape:version="1.3.2 (091e20e, 2023-11-25, custom)"
   sodipodi:docname="Logo_White.svg"
   xmlns:inkscape="http://www.inkscape.org/namespaces/inkscape"
   xmlns:sodipodi="http://sodipodi.sourceforge.net/DTD/sodipodi-0.dtd"
   xmlns:xlink="http://www.w3.org/1999/xlink"
   xmlns="http://www.w3.org/2000/svg"
   xmlns:svg="http://www.w3.org/2000/svg"
   xmlns:rdf="http://www.w3.org/1999/02/22-rdf-syntax-ns#"
   xmlns:cc="http://creativecommons.org/ns#"
   xmlns:dc="http://purl.org/dc/elements/1.1/">
  <defs
     id="defs2">
    <linearGradient
       id="linearGradient4"
       inkscape:collect="always">
      <stop
         style="stop-color:#030d04;stop-opacity:1;"
         offset="0"
         id="stop4" />
      <stop
         style="stop-color:#ffffff;stop-opacity:0;"
         offset="1"
         id="stop5" />
    </linearGradient>
    <radialGradient
       inkscape:collect="always"
       xlink:href="#linearGradient4"
       id="radialGradient5"
       cx="13.046966"
       cy="258.32481"
       fx="13.046966"
       fy="258.32481"
       r="8.75043"
       gradientTransform="matrix(1,0,0,1.1912874,0,-49.414285)"
       gradientUnits="userSpaceOnUse" />
  </defs>
  <sodipodi:namedview
     id="base"
     pagecolor="#ffffff"
     bordercolor="#666666"
     borderopacity="1.0"
     inkscape:pageopacity="0.0"
     inkscape:pageshadow="2"
     inkscape:zoom="2"
     inkscape:cx="94"
     inkscape:cy="89"
     inkscape:document-units="mm"
     inkscape:current-layer="layer1"
     showgrid="false"
     units="in"
     inkscape:window-width="1280"
     inkscape:window-height="778"
     inkscape:window-x="-6"
     inkscape:window-y="-6"
     inkscape:window-maximized="1"
     inkscape:showpageshadow="2"
     inkscape:pagecheckerboard="0"
     inkscape:deskcolor="#d1d1d1" />
  <metadata
     id="metadata5">
    <rdf:RDF>
      <cc:Work
         rdf:about="">
        <dc:format>image/svg+xml</dc:format>
        <dc:type
           rdf:resource="http://purl.org/dc/dcmitype/StillImage" />
      </cc:Work>
    </rdf:RDF>
  </metadata>
  <g
     inkscape:label="Layer 1"
     inkscape:groupmode="layer"
     id="layer1"
     transform="translate(0,-246.19998)">
    <g
       id="g1"
       transform="matrix(2.2644169,0,0,2.2644169,-4.0611595,-313.53339)"
       style="fill:url(#radialGradient5);stroke:#ffffff;stroke-opacity:1;stroke-width:0.13248444;stroke-dasharray:none;stroke-linecap:round;stroke-linejoin:round;fill-opacity:1">
      <path
         style="color:#000000;font-style:normal;font-variant:normal;font-weight:normal;font-stretch:normal;font-size:medium;line-height:normal;font-family:sans-serif;font-variant-ligatures:normal;font-variant-position:normal;font-variant-caps:normal;font-variant-numeric:normal;font-variant-alternates:normal;font-feature-settings:normal;text-indent:0;text-align:start;text-decoration:none;text-decoration-line:none;text-decoration-style:solid;text-decoration-color:#000000;letter-spacing:normal;word-spacing:normal;text-transform:none;writing-mode:lr-tb;direction:ltr;text-orientation:mixed;dominant-baseline:auto;baseline-shift:baseline;text-anchor:start;white-space:normal;shape-padding:0;clip-rule:nonzero;display:inline;overflow:visible;visibility:visible;opacity:1;isolation:auto;mix-blend-mode:normal;color-interpolation:sRGB;color-interpolation-filters:linearRGB;solid-color:#000000;solid-opacity:1;fill:url(#radialGradient5);fill-opacity:1;fill-rule:nonzero;stroke:#ffffff;stroke-width:0.132484;stroke-linecap:round;stroke-linejoin:round;stroke-miterlimit:4;stroke-dasharray:none;stroke-dashoffset:0;stroke-opacity:1;color-rendering:auto;image-rendering:auto;shape-rendering:auto;text-rendering:auto;enable-background:accumulate"
         d="m 9.3345539,247.96741 -4.971778,16.65919 7.1508991,0.006 3.439105,-4.13933 v -9.58418 h -2.355293 v 11.39882 H 7.4810239 l 4.1499191,-14.34114 z"
         id="path834"
         inkscape:connector-curvature="0"
         sodipodi:nodetypes="cccccccccc" />
      <path
         style="fill:url(#radialGradient5);fill-opacity:1;stroke:#ffffff;stroke-width:0.13248444;stroke-miterlimit:4;stroke-dasharray:none;stroke-opacity:1;stroke-linecap:round;stroke-linejoin:round"
         d="m 10.773118,251.91234 c 0.342836,0.041 1.2883,0.14938 1.568859,0.2428 l -0.01294,1.05362 c -0.569913,-0.14466 -1.054434,-0.40717 -1.785059,-0.51213 0.09854,-0.31708 0.165319,-0.59913 0.229068,-0.78429 z"
         id="path832"
         inkscape:connector-curvature="0"
         sodipodi:nodetypes="ccccc" />
      <path
         style="fill:url(#radialGradient5);fill-opacity:1;stroke:#ffffff;stroke-width:0.13248444;stroke-miterlimit:4;stroke-dasharray:none;stroke-opacity:1;stroke-linecap:round;stroke-linejoin:round"
         d="m 18.48404,253.3383 c 0.985641,0.26868 0.950157,0.25659 1.15311,0.39231 0.202671,0.13568 0.442034,0.34999 0.471946,0.42278 0.01233,0.0303 0.01173,0.0408 -0.0053,0.0915 -0.05272,0.15667 -0.1761,0.36061 -0.329637,0.54505 -0.138342,0.16619 -0.548537,0.60191 -0.572707,0.60842 -0.04774,0.0137 -0.199902,0.005 -0.306883,-0.0177 -0.270014,-0.056 -0.406598,-0.1037 -1.147153,-0.39958 -0.697196,-0.27829 -1.720557,-0.70583 -2.553434,-1.07574 -0.002,-0.54482 -0.0078,-0.95548 -0.01035,-1.36496 0.54478,0.0962 2.093831,0.45996 3.300392,0.79891 z"
         id="path828"
         inkscape:connector-curvature="0"
         sodipodi:nodetypes="ccccccccccc" />
      <path
         style="fill:url(#radialGradient5);fill-opacity:1;stroke:#ffffff;stroke-width:0.13248444;stroke-miterlimit:4;stroke-dasharray:none;stroke-opacity:1;stroke-linecap:round;stroke-linejoin:round"
         d="m 19.14642,257.62987 c 0.02318,0.18393 0.08693,0.20919 0.06144,0.26525 -0.01127,0.0248 -0.07902,0.11588 -0.150692,0.20254 -0.07166,0.0866 -0.338326,0.40893 -0.592552,0.71625 -1.555462,1.88032 -4.592143,5.50528 -6.923552,8.26474 -1.032267,1.22178 -0.988541,1.17387 -1.093581,1.19806 h -4.4e-5 c -0.0591,0.0137 -0.208919,0.0107 -0.301298,-0.005 -0.05584,-0.009 -0.08634,-0.0222 -0.128795,-0.0506 -0.07976,-0.055 -0.3141031,-0.25579 -0.3967901,-0.34011 l -0.07044,-0.0717 -0.0046,-0.11877 c -0.0053,-0.14025 0.0087,-0.23219 0.04687,-0.30688 0.01507,-0.0295 0.212529,-0.2762 0.4387711,-0.54835 0.226243,-0.27213 0.748898,-0.90075 1.161418,-1.39693 2.065637,-2.48446 4.907109,-5.88316 6.367026,-7.61567 0.413618,-0.49083 0.428501,-0.50365 0.858318,-0.73717 0.100578,-0.0547 0.719526,0.47399 0.72839,0.5438 z m -0.487222,-0.88194 c -0.02934,-0.0589 -0.05334,-0.11862 -0.05334,-0.13278 0,-0.0177 0.04411,-0.0802 0.144296,-0.20431 0.277015,-0.34282 0.707732,-0.865 1.356558,-1.64465 l 0.65365,-0.78522 0.129236,0.0885 c 0.676824,0.46331 0.91914,0.74371 0.821114,0.95029 -0.0091,0.0199 -0.0651,0.0895 -0.124454,0.15645 -0.201939,0.22747 -0.46619,0.53725 -0.892426,1.04607 -0.452451,0.54013 -0.658507,0.78172 -0.850012,0.99673 -0.105862,0.11878 -0.123602,0.13446 -0.164622,0.14466 -0.0579,0.0155 -0.09846,0.0137 -0.277487,-0.006 z"
         id="path826"
         inkscape:connector-curvature="0"
         sodipodi:nodetypes="ccsccccccccccccccccsccccccccccc" />
      <path
         style="fill:url(#radialGradient5);fill-opacity:1;stroke:#ffffff;stroke-width:0.13248444;stroke-miterlimit:4;stroke-dasharray:none;stroke-opacity:1;stroke-linecap:round;stroke-linejoin:round"
         d="m 15.835165,262.41441 h 2.984094 v 2.11318 h -3.972322 v 4.15525 h -2.143632 v -2.54967 z"
         id="path831"
         inkscape:connector-curvature="0" />
      <path
         style="fill:url(#radialGradient5);fill-opacity:1;stroke:#ffffff;stroke-width:0.132484;stroke-linecap:round;stroke-linejoin:round;stroke-miterlimit:4;stroke-dasharray:none;stroke-opacity:1"
         d="m 7.7022019,252.46639 c -0.7101598,-0.0236 -1.4178643,0.0578 -2.119918,0.15585 -0.3508318,0.0434 -0.7040973,0.0718 -1.051316,0.14043 0.2898421,-0.0897 0.5388258,-0.27802 0.8352033,-0.35109 0.8055938,-0.25422 1.6399409,-0.43256 2.4857817,-0.46728 -0.049917,0.17403 -0.099834,0.34806 -0.149751,0.52209 z"
         id="path830"
         inkscape:connector-curvature="0" />
    </g>
  </g>
</svg>
